<?xml version="1.0" standalone="no"?>
<!DOCTYPE svg PUBLIC "-//W3C//DTD SVG 20010904//EN"
 "http://www.w3.org/TR/2001/REC-SVG-20010904/DTD/svg10.dtd">
<svg version="1.0" xmlns="http://www.w3.org/2000/svg"
 width="500.000000pt" height="500.000000pt" viewBox="0 0 500.000000 500.000000"
 preserveAspectRatio="xMidYMid meet">

<g transform="translate(0.000000,500.000000) scale(0.100000,-0.100000)"
fill="#000000" stroke="none">
<path d="M2250 4386 c-297 -43 -635 -182 -862 -354 l-73 -56 -98 3 c-91 2
-101 1 -123 -20 -22 -21 -24 -30 -24 -120 l0 -98 -82 -111 c-74 -100 -87 -113
-140 -137 -69 -31 -113 -76 -103 -107 3 -12 9 -48 12 -81 5 -52 0 -75 -36
-181 -71 -208 -92 -329 -98 -561 -8 -283 22 -483 107 -713 l31 -85 -2 -269
c-1 -259 -1 -269 19 -289 l21 -21 103 32 c171 53 148 59 268 -60 217 -215 441
-356 719 -452 228 -80 386 -106 633 -106 515 0 981 193 1348 559 108 108 92
104 248 60 57 -16 112 -27 122 -24 32 10 37 54 32 296 l-5 237 41 118 c83 243
112 410 112 654 0 240 -37 456 -112 652 -27 72 -32 96 -33 183 -1 126 -9 140
-84 161 -44 13 -62 23 -75 46 -10 16 -51 71 -92 124 l-74 95 0 80 c0 77 -10
115 -34 132 -6 4 -52 7 -102 6 l-91 -1 -76 57 c-216 162 -508 287 -797 341
-118 22 -474 28 -600 10z m-1316 -2942 c21 -31 34 -60 29 -64 -4 -4 -23 -11
-40 -15 l-33 -7 0 71 c0 39 2 71 4 71 2 0 20 -25 40 -56z m3216 -15 l0 -72
-42 7 c-23 4 -44 8 -46 10 -3 4 79 126 85 126 2 0 3 -32 3 -71z"/>
</g>
</svg>
