<?xml version="1.0" encoding="UTF-8"?>
<svg version="1.1" xmlns="http://www.w3.org/2000/svg" width="500" height="500">
<path d="M0 0 C39.17645766 6.03561243 76.92211635 26.32096295 102.609375 56.74609375 C104.00024693 58.33378718 105.39616916 59.91706927 106.796875 61.49609375 C107.74626953 62.57117188 107.74626953 62.57117188 108.71484375 63.66796875 C110.62101088 65.75885724 112.59337756 67.76138673 114.609375 69.74609375 C114.86074219 69.18792969 115.11210937 68.62976563 115.37109375 68.0546875 C132.37695372 36.34975614 172.69713109 15.00751069 205.4140625 4.52734375 C219.55721256 0.44223257 240.36938377 -5.05397214 254.88671875 -0.546875 C257.32876146 1.28604141 257.70928803 2.81868537 258.609375 5.74609375 C258.77494641 8.56988741 258.84290664 11.28938009 258.8046875 14.109375 C258.80044266 15.29734932 258.80044266 15.29734932 258.79611206 16.50932312 C258.78496363 19.02590374 258.75986922 21.54212164 258.734375 24.05859375 C258.72433829 25.77017713 258.71521364 27.48176612 258.70703125 29.19335938 C258.68504181 33.37774281 258.65054908 37.56185689 258.609375 41.74609375 C259.82069092 41.88563477 261.03200684 42.02517578 262.2800293 42.16894531 C267.46890709 42.81981102 272.38786451 44.10108455 277.421875 45.49609375 C278.36224609 45.73585937 279.30261719 45.975625 280.27148438 46.22265625 C286.90613114 48.06271554 286.90613114 48.06271554 289.68359375 50.76171875 C292.99648804 61.44125984 291.7645914 73.81229536 291.77050781 84.88574219 C291.77514312 86.91539092 291.78016873 88.94503879 291.78555298 90.97468567 C291.79860116 96.45986623 291.80510579 101.9450346 291.80956364 107.43022823 C291.81250369 110.85977019 291.81660999 114.28930888 291.82106781 117.71884918 C291.83471616 128.45788009 291.84439859 139.19690344 291.8482697 149.93594241 C291.85275887 162.31902108 291.87035767 174.70198984 291.8992703 187.08503509 C291.92087577 196.67170111 291.9309732 206.25833614 291.93231082 215.84502625 C291.93335867 221.56560904 291.9392638 227.28608811 291.95713043 233.0066452 C291.97359376 238.38130817 291.97577505 243.75578919 291.96699142 249.13046837 C291.96622041 251.10131251 291.97057225 253.07216638 291.98044968 255.04298592 C291.99315239 257.73547818 291.98730177 260.42732414 291.97686768 263.11981201 C291.98492408 263.8973451 291.99298048 264.67487819 292.00128102 265.47597289 C291.95496813 270.59381991 291.06507766 274.22209502 288.609375 278.74609375 C283.59593796 280.77202146 279.21208863 279.0528183 274.296875 277.49609375 C268.08714425 275.64886699 261.93425485 274.09168935 255.546875 272.99609375 C254.88196045 272.88104492 254.2170459 272.76599609 253.53198242 272.64746094 C251.5606663 272.32198113 249.58740721 272.02773087 247.609375 271.74609375 C246.65248779 271.60143677 246.65248779 271.60143677 245.67626953 271.45385742 C238.0248633 270.43699006 230.31349612 270.54603356 222.609375 270.55859375 C221.5012294 270.55999863 221.5012294 270.55999863 220.37069702 270.56143188 C209.67182716 270.59087898 199.14806599 270.70452873 188.609375 272.74609375 C187.77470703 272.9073877 186.94003906 273.06868164 186.08007812 273.23486328 C165.24089805 277.39600577 142.30729386 283.18427152 124.796875 295.74609375 C119.85250019 299.01466519 115.82368545 299.83285988 109.9140625 299.4921875 C104.92337191 298.36544766 101.28567948 295.87209451 97.08203125 293.03125 C77.76762819 279.99471872 53.29347189 275.05055389 30.609375 271.74609375 C29.7961377 271.62363281 28.98290039 271.50117188 28.14501953 271.375 C1.677306 267.55170683 -25.89846182 269.79500514 -51.078125 278.890625 C-54.68775783 279.82282971 -56.83813075 279.83559417 -60.390625 278.74609375 C-62.9413398 274.92002155 -62.67667199 271.81887314 -62.66236877 267.38409424 C-62.66745561 266.52075682 -62.67254245 265.65741941 -62.67778343 264.76792026 C-62.69249187 261.86379007 -62.69297877 258.95982893 -62.69360352 256.05566406 C-62.70126177 253.97793242 -62.70980757 251.90020388 -62.71917725 249.82247925 C-62.73748219 245.34209092 -62.74950412 240.86174457 -62.75671577 236.38132477 C-62.76818392 229.29687444 -62.79363382 222.21251688 -62.82102966 215.12811279 C-62.86271876 203.92033013 -62.89511214 192.71254303 -62.92350382 181.5047195 C-62.9744156 161.44234105 -63.03667033 141.38000174 -63.10884422 121.3176887 C-63.13375394 114.27557706 -63.15319206 107.23347747 -63.16822636 100.19133806 C-63.17843993 95.80757212 -63.19258682 91.4238249 -63.20770264 87.04007339 C-63.21385194 85.00796831 -63.21831473 82.97585732 -63.22096062 80.94374466 C-63.224781 78.16780444 -63.23460625 75.39194641 -63.24586487 72.61602783 C-63.24547874 71.81358304 -63.2450926 71.01113825 -63.24469477 70.18437696 C-63.27053971 65.61042077 -63.7391413 61.28187057 -64.390625 56.74609375 C-62.81127453 52.68490683 -59.47448015 50.33670701 -55.73828125 48.30078125 C-48.25081582 45.01456121 -39.6543631 41.74609375 -31.390625 41.74609375 C-31.41680908 40.62114502 -31.44299316 39.49619629 -31.4699707 38.3371582 C-31.56064245 34.15344218 -31.61793537 29.96981254 -31.6652832 25.78540039 C-31.6903889 23.97633243 -31.72448095 22.16736553 -31.76782227 20.35864258 C-31.82865079 17.75446624 -31.85687309 15.15163344 -31.87890625 12.546875 C-31.90471268 11.74147781 -31.9305191 10.93608063 -31.95710754 10.10627747 C-31.95923223 5.82819905 -31.76509092 4.22737736 -29.04467773 0.73095703 C-21.85551228 -4.64554146 -8.58753225 -1.19268629 0 0 Z M-39.390625 59.18359375 C-40.04546875 59.41369141 -40.7003125 59.64378906 -41.375 59.88085938 C-44.63617096 60.87110973 -44.63617096 60.87110973 -47.390625 62.74609375 C-47.4883875 65.30066545 -47.52057646 67.82817836 -47.51087952 70.38319397 C-47.51173394 71.19259176 -47.51258837 72.00198955 -47.51346868 72.83591455 C-47.51512596 75.56909847 -47.50959809 78.30222206 -47.50415039 81.03540039 C-47.50386855 82.98626199 -47.5040262 84.93712369 -47.5045929 86.88798523 C-47.50488098 92.20181534 -47.49898254 97.51562309 -47.49201894 102.82944798 C-47.48578716 108.3761606 -47.48518174 113.92287366 -47.48399353 119.46958923 C-47.48087969 129.98102 -47.4726656 140.49244041 -47.46264404 151.00386661 C-47.45148453 162.9673851 -47.44597286 174.93090407 -47.44094861 186.89442647 C-47.43048303 211.51165464 -47.41288258 236.12887362 -47.390625 260.74609375 C-46.82181201 260.63134516 -46.25299902 260.51659657 -45.66694927 260.39837074 C-43.05575062 259.87218436 -40.4442603 259.34745933 -37.83276367 258.82275391 C-36.49081562 258.55199791 -36.49081562 258.55199791 -35.12175751 258.27577209 C-21.52993709 255.54803152 -8.43232964 254.33783842 5.421875 254.37109375 C6.70504105 254.37190948 6.70504105 254.37190948 8.01412964 254.3727417 C28.737386 254.43307844 47.91117225 257.55335474 67.796875 263.37890625 C72.36408385 264.71316783 76.95491999 265.76077565 81.609375 266.74609375 C54.68294081 238.47849617 15.31061207 224.72901649 -22.89453125 223.0546875 C-25.50839407 222.73153388 -27.17686481 222.15667564 -29.390625 220.74609375 C-30.80715078 217.91304218 -30.53169869 215.52475718 -30.54884338 212.35543823 C-30.55625035 211.36057173 -30.55625035 211.36057173 -30.56380695 210.34560692 C-30.57922081 208.11305695 -30.58755304 205.88053582 -30.59594727 203.64794922 C-30.60552274 202.0516128 -30.61553262 200.45527893 -30.62594604 198.85894775 C-30.65303703 194.51624578 -30.67402384 190.17353288 -30.69394803 185.8307929 C-30.71578177 181.29571374 -30.74318321 176.76066837 -30.77000427 172.22561646 C-30.81996656 163.63378787 -30.86489224 155.04194055 -30.90802664 146.45007527 C-30.95736883 136.67026522 -31.01229813 126.89048908 -31.06770623 117.11071181 C-31.18158054 96.98920404 -31.28840768 76.8676639 -31.390625 56.74609375 C-34.03052706 56.74609375 -36.89437055 58.29172331 -39.390625 59.18359375 Z M258.609375 57.74609375 C258.60606485 58.54546702 258.60275471 59.3448403 258.59934425 60.168437 C258.51814118 79.61457281 258.42605754 99.06062919 258.32184792 118.50665569 C258.2717157 127.91058919 258.22527283 137.31451393 258.1875 146.71850586 C258.15456975 154.91455482 258.11473278 163.11053605 258.06658494 171.30651027 C258.04133026 175.64663039 258.0195459 179.98670563 258.00603104 184.3268795 C257.99320136 188.41197599 257.97113714 192.4969185 257.94199181 196.58193016 C257.93292313 198.08110388 257.92722745 199.58030238 257.92516136 201.07950211 C257.921834 203.1271891 257.90517178 205.17484147 257.8878479 207.22245789 C257.87955176 208.9411409 257.87955176 208.9411409 257.87108803 210.69454479 C257.60809429 213.76102671 256.9109064 215.97470018 255.609375 218.74609375 C254.65796631 218.84631836 253.70655762 218.94654297 252.72631836 219.04980469 C249.11852197 219.43308403 245.51259682 219.83210439 241.90698242 220.23535156 C240.3608852 220.40616276 238.81434027 220.57297969 237.26733398 220.73535156 C206.68874475 223.95519651 179.4605635 235.32450081 155.609375 254.74609375 C154.66795654 255.50817139 154.66795654 255.50817139 153.70751953 256.28564453 C151.89459412 257.76156689 150.09235629 259.24901282 148.296875 260.74609375 C147.49660889 261.41306274 147.49660889 261.41306274 146.68017578 262.09350586 C143.93981209 264.43287343 141.63421119 266.76066974 139.609375 269.74609375 C142.84980994 269.15039682 145.88868008 268.38353 148.99609375 267.29296875 C187.78862512 254.06908518 228.6298019 250.95924851 268.72265625 259.94140625 C272.60067331 260.88125093 272.60067331 260.88125093 276.609375 260.74609375 C276.63286346 238.76912001 276.65043177 216.79214837 276.66118717 194.81516457 C276.66631655 184.60805463 276.67329425 174.40095255 276.68481445 164.19384766 C276.69486495 155.28458601 276.70125276 146.37533006 276.70346349 137.4660629 C276.70475323 132.76029274 276.70772638 128.05453884 276.71510506 123.34877396 C276.74563404 103.12189668 276.6517699 82.95186221 275.609375 62.74609375 C274.44030609 62.34990845 273.27123718 61.95372314 272.06674194 61.54553223 C270.01601851 60.85056337 267.96574213 60.1544179 265.91650391 59.45507812 C262.34241088 58.185888 262.34241088 58.185888 258.609375 57.74609375 Z " fill="#0C92B3" transform="translate(137.390625,102.25390625)"/>
<path d="M0 0 C6.5977638 -0.10236919 13.19531891 -0.17186711 19.79370117 -0.21972656 C22.03303684 -0.23970193 24.27232129 -0.26689182 26.51147461 -0.30175781 C54.90310373 -0.7324138 54.90310373 -0.7324138 64.5625 6.25 C69.59578115 11.92857361 71.68753057 16.96031371 71.3125 24.61328125 C70.46069101 31.11897244 67.67073413 34.77437458 62.81640625 38.8359375 C60.87873336 40.07771496 59.2490847 40.57489828 57 41 C57 41.66 57 42.32 57 43 C58.2684375 43.0928125 58.2684375 43.0928125 59.5625 43.1875 C64.78785453 44.4225838 68.47101651 46.94353503 71.67578125 51.25390625 C74.56224154 57.23969263 73.93001343 64.63487894 72.19140625 70.92578125 C69.07625821 78.02918109 64.22260417 81.78803942 57.18574524 84.7684021 C50.77922519 87.16729262 44.97481315 87.39337986 38.18359375 87.29296875 C37.08652603 87.28872391 35.98945831 87.28447906 34.85914612 87.28010559 C31.38500522 87.26342927 27.91146301 87.22579717 24.4375 87.1875 C22.06966989 87.17243891 19.7018306 87.15875301 17.33398438 87.14648438 C11.55578831 87.11356202 5.77793695 87.06347378 0 87 C-0.06075859 85.54348164 -0.10439649 84.08624109 -0.140625 82.62890625 C-0.16672852 81.81752197 -0.19283203 81.0061377 -0.21972656 80.17016602 C0 78 0 78 2.25 75.9375 C5 75 5 75 9 75 C9 54.21 9 33.42 9 12 C6.69 11.67 4.38 11.34 2 11 C0 9 0 9 -0.1953125 6.8359375 C-0.17210937 6.02382812 -0.14890625 5.21171875 -0.125 4.375 C-0.10695313 3.55773437 -0.08890625 2.74046875 -0.0703125 1.8984375 C-0.04710937 1.27195313 -0.02390625 0.64546875 0 0 Z " fill="#083446" transform="translate(259,206)"/>
<path d="M0 0 C24.09 0 48.18 0 73 0 C73 6.93 73 13.86 73 21 C70.03 21 67.06 21 64 21 C62 18 62 18 62 14 C56.39 14 50.78 14 45 14 C45 34.46 45 54.92 45 76 C46.98 76 48.96 76 51 76 C51.99 76.66 52.98 77.32 54 78 C54 80.97 54 83.94 54 87 C42.45 87 30.9 87 19 87 C19 78 19 78 21 76 C24.465 75.505 24.465 75.505 28 75 C28 54.87 28 34.74 28 14 C22.06 14 16.12 14 10 14 C10 15.98 10 17.96 10 20 C9.67 20.33 9.34 20.66 9 21 C6.03 21 3.06 21 0 21 C0 14.07 0 7.14 0 0 Z " fill="#083749" transform="translate(175,206)"/>
<path d="M0 0 C3.67125 -0.061875 7.3425 -0.12375 11.125 -0.1875 C12.84420654 -0.22846802 12.84420654 -0.22846802 14.59814453 -0.27026367 C20.10623469 -0.31517445 24.34515304 -0.3089567 29 3 C31.99163411 5.99163411 32.43170826 8.26165891 32.4375 12.4375 C32.32356578 16.00269154 32.10653559 17.79545167 30.4375 21 C24.01292907 26.27144281 18.05077406 26.39878383 10.0625 26.1875 C6.741875 26.125625 3.42125 26.06375 0 26 C0 17.42 0 8.84 0 0 Z " fill="#088DAE" transform="translate(284,255)"/>
<path d="M0 0 C3.50625 -0.0825 7.0125 -0.165 10.625 -0.25 C11.71893066 -0.28641602 12.81286133 -0.32283203 13.93994141 -0.36035156 C19.96509533 -0.42888202 23.45890819 -0.08551302 28 4 C30.84064331 8.26096497 30.74652019 11.99986999 30 17 C28.68307674 19.88664874 27.53023796 20.846606 25 23 C19.42167888 25.07074041 14.41122315 25.24656824 8.5625 25.125 C5.736875 25.08375 2.91125 25.0425 0 25 C0 16.75 0 8.5 0 0 Z " fill="#088EAF" transform="translate(284,219)"/>
</svg>
