<?xml version="1.0" encoding="UTF-8"?>
<svg version="1.1" xmlns="http://www.w3.org/2000/svg" width="500" height="220">
<path d="M0 0 C3.65238135 2.72189372 6.89220701 2.87834186 11.375 3.1875 C12.375 4.1875 12.375 4.1875 12.4375 7.625 C13.08165995 13.77783812 17.47750535 17.70020044 21.375 22.1875 C22.035 23.1775 22.695 24.1675 23.375 25.1875 C24.38046875 25.61095703 24.38046875 25.61095703 25.40625 26.04296875 C27.375 27.1875 27.375 27.1875 28.28125 29.55078125 C28.4771875 30.52402344 28.673125 31.49726562 28.875 32.5 C29.85246051 36.97602134 31.00288663 41.2735159 32.4375 45.625 C38.25020407 64.37709513 39.16898707 88.06932582 30.125 106.125 C28.71700468 109.66785256 28.16201047 112.53739912 28.1953125 116.34375 C28.19772949 117.76312866 28.19772949 117.76312866 28.20019531 119.21118164 C28.23299253 121.12997968 28.28142361 123.04858422 28.34667969 124.96655273 C28.37407227 125.85286377 28.40146484 126.7391748 28.4296875 127.65234375 C28.46562012 128.452771 28.50155273 129.25319824 28.53857422 130.07788086 C28.375 132.1875 28.375 132.1875 26.375 135.1875 C18.64760948 134.28597111 18.64760948 134.28597111 16.3203125 133.4453125 C15.35738281 133.31769531 15.35738281 133.31769531 14.375 133.1875 C12.60763711 134.49640985 12.60763711 134.49640985 11 136.5 C-5.60601097 154.09007088 -28.75475972 163.10012419 -52.625 164.1875 C-78.64277295 164.72801863 -100.66839976 154.66388 -119.49609375 137.10546875 C-121.67409303 135.05018761 -121.67409303 135.05018761 -124.625 133.1875 C-126.97404126 133.7965107 -129.30734271 134.46822705 -131.625 135.1875 C-134.5 135.375 -134.5 135.375 -136.625 135.1875 C-138.29912073 133.51337927 -137.75389915 131.44474923 -137.765625 129.1484375 C-137.93909606 117.80482464 -138.30517458 108.02332632 -142.4140625 97.37109375 C-149.05709189 79.9063552 -146.73219384 58.03912666 -139.98828125 40.9375 C-138.83917561 37.77663634 -138.30362315 36.10885457 -138.625 32.875 C-138.625 29.1875 -138.625 29.1875 -137.375 27.3125 C-135.625 26.1875 -135.625 26.1875 -133.7421875 25.3984375 C-128.78398976 22.56256795 -125.38230135 16.69692128 -123.765625 11.33984375 C-123.43673906 9.60820944 -123.14844099 7.86803109 -122.9140625 6.12109375 C-122.625 4.1875 -122.625 4.1875 -121.625 3.1875 C-120.325625 3.14625 -119.02625 3.105 -117.6875 3.0625 C-112.4492673 2.53538224 -109.52972905 0.25973848 -105.40234375 -2.84375 C-97.74257273 -8.2734611 -89.15338432 -11.86875664 -80.25 -14.6875 C-79.60853027 -14.89068848 -78.96706055 -15.09387695 -78.30615234 -15.30322266 C-52.06325657 -23.12529869 -21.38439175 -16.68557922 0 0 Z " fill="#0990B1" transform="translate(168.625,36.8125)"/>
<path d="M0 0 C1.175625 1.11375 1.175625 1.11375 2.375 2.25 C2.375 2.91 2.375 3.57 2.375 4.25 C1.61058594 4.32476562 0.84617187 4.39953125 0.05859375 4.4765625 C-22.04940136 7.19017923 -40.57489334 19.22078763 -54.625 36.25 C-57.94936221 35.14187926 -58.55185332 34.39463373 -60.6875 31.75 C-67.92386227 23.28482149 -75.59561109 17.08836905 -85.625 12.25 C-86.51058594 11.79753906 -87.39617187 11.34507813 -88.30859375 10.87890625 C-94.42998242 7.88484532 -100.38104596 6.20854648 -107.0703125 4.92578125 C-108.33488281 4.59126953 -108.33488281 4.59126953 -109.625 4.25 C-109.955 3.59 -110.285 2.93 -110.625 2.25 C-84.23828693 -27.65494148 -28.79834027 -22.78476574 0 0 Z " fill="#0D3748" transform="translate(168.625,36.75)"/>
<path d="M0 0 C3.21326945 1.46501647 5.06116697 1.62523045 8.5703125 1.171875 C11.15396226 0.00341869 13.54404014 -1.20116821 16.0078125 -2.578125 C23.66902951 -6.64305978 31.08043888 -9.05187485 39.5703125 -10.828125 C40.94509766 -11.11816406 40.94509766 -11.11816406 42.34765625 -11.4140625 C46.90613974 -11.99975856 51.41645379 -12.01240751 56.0078125 -12.015625 C56.92369141 -12.02787109 57.83957031 -12.04011719 58.78320312 -12.05273438 C64.11664665 -12.06422061 68.52676746 -11.58330642 73.5703125 -9.828125 C72.73471878 -3.73240029 67.09607161 -0.4256711 62.5703125 3.171875 C41.45270809 18.77582779 16.94351394 24.62294028 -8.984375 20.94921875 C-29.17872374 17.64779786 -47.65732525 7.33859719 -61.4296875 -7.828125 C-61.4296875 -8.818125 -61.4296875 -9.808125 -61.4296875 -10.828125 C-41.02901955 -14.81187748 -17.63325635 -10.89271493 0 0 Z " fill="#0E3949" transform="translate(107.4296875,178.828125)"/>
<path d="M0 0 C4.455 0.99 4.455 0.99 9 2 C9.09262957 13.53500691 9.16372932 25.06992551 9.20724869 36.60522842 C9.22813454 41.96139908 9.25647064 47.31731551 9.30175781 52.67333984 C9.34517961 57.84101616 9.36912959 63.00844777 9.37950897 68.17629242 C9.38690691 70.14911502 9.40135319 72.12192405 9.42292023 74.09464264 C9.45190543 76.85538303 9.45595805 79.6151088 9.45410156 82.37597656 C9.46848267 83.19381119 9.48286377 84.01164581 9.49768066 84.85426331 C9.47127006 88.47752179 9.30839086 90.57985037 7.13421631 93.54193115 C5 95 5 95 2.3984375 94.953125 C1.40070313 94.72109375 0.40296875 94.4890625 -0.625 94.25 C-17.7212135 91.05641202 -35.91491368 92.55193309 -51.99609375 99.328125 C-52.65738281 99.54984375 -53.31867188 99.7715625 -54 100 C-54.66 99.67 -55.32 99.34 -56 99 C-39.63634848 83.34626828 -23.59699831 76 -1 76 C-0.67 50.92 -0.34 25.84 0 0 Z " fill="#083648" transform="translate(181,68)"/>
<path d="M0 0 C1.68125977 -0.01836914 1.68125977 -0.01836914 3.39648438 -0.03710938 C10.74168476 -0.05004866 17.37770703 0.0206695 23.8125 3.9375 C27.31442775 7.6454235 27.96338902 10.71182601 27.875 15.75 C26.7631909 19.82663337 25.12384613 21.49136097 21.9375 24.1875 C22.906875 24.97125 23.87625 25.755 24.875 26.5625 C26.77712346 28.10038705 27.83379957 28.98009913 28.9375 31.1875 C29.44640436 37.29435229 29.0150461 40.31709772 24.9375 45.1875 C20.45318701 49.1282599 16.70819126 49.30901303 10.86328125 49.28515625 C9.83753242 49.28303383 9.83753242 49.28303383 8.7910614 49.28086853 C6.61066278 49.27527876 4.43036749 49.26272822 2.25 49.25 C0.77018378 49.24498367 -0.70963406 49.240421 -2.18945312 49.23632812 C-5.81383557 49.22531271 -9.4381577 49.20805512 -13.0625 49.1875 C-13.0625 47.5375 -13.0625 45.8875 -13.0625 44.1875 C-11.4125 43.5275 -9.7625 42.8675 -8.0625 42.1875 C-8.3925 30.9675 -8.7225 19.7475 -9.0625 8.1875 C-10.3825 7.5275 -11.7025 6.8675 -13.0625 6.1875 C-13.105221 4.52138095 -13.10313832 2.85367115 -13.0625 1.1875 C-10.51371238 -1.36128762 -3.4239478 0.00192249 0 0 Z M1.9375 8.1875 C1.9375 12.4775 1.9375 16.7675 1.9375 21.1875 C3.835 21.27 5.7325 21.3525 7.6875 21.4375 C9.28851563 21.50710937 9.28851563 21.50710937 10.921875 21.578125 C14.02527266 21.42722826 14.02527266 21.42722826 16.328125 19.3984375 C18.29305896 17.1548136 18.29305896 17.1548136 17.9375 13.5625 C17.31793917 10.19277887 17.31793917 10.19277887 15.234375 8.984375 C12.43195291 8.01210611 10.14764181 7.99202043 7.1875 8.0625 C4.58875 8.124375 4.58875 8.124375 1.9375 8.1875 Z M1.9375 28.1875 C1.9375 32.8075 1.9375 37.4275 1.9375 42.1875 C9.71457563 42.61351497 9.71457563 42.61351497 16.9375 40.1875 C19.23577312 38.30811828 19.23577312 38.30811828 19.25 35.25 C19.20055742 32.23201232 19.20055742 32.23201232 17.625 30.375 C14.25771539 28.00542935 11.22425914 28.07824401 7.25 28.125 C5.496875 28.145625 3.74375 28.16625 1.9375 28.1875 Z " fill="#224857" transform="translate(348.0625,90.8125)"/>
<path d="M0 0 C0.01030746 0.96244125 0.02061493 1.92488251 0.03123474 2.91648865 C0.12880019 11.96667088 0.23151783 21.01678177 0.33933926 30.0668478 C0.39461007 34.72007769 0.44803658 39.37331381 0.49731445 44.02661133 C0.54489685 48.51350117 0.59723717 53.00031212 0.65294075 57.48710823 C0.67339216 59.20278025 0.69210053 60.91847393 0.70907402 62.63418388 C0.73305665 65.02890769 0.76311912 67.42348102 0.79467773 69.81811523 C0.8004332 70.53452682 0.80618866 71.25093842 0.81211853 71.98905945 C0.58238175 75.27756949 0.58238175 75.27756949 2 78 C3.99928362 78.08228759 5.99959318 78.13976302 8 78.1875 C24.42029321 79.28998154 39.91771388 86.9533384 52 98 C48.62269608 99.12576797 48.15777543 98.91229893 45 97.6875 C31.55053125 93.01873537 15.99618726 92.31722414 2 95 C-0.78061672 95.24929667 -3.18279004 95.187814 -6 95 C-8.57575061 91.13637408 -8.26624186 87.96658821 -8.22705078 83.48950195 C-8.22734283 82.62099609 -8.22763489 81.75249023 -8.22793579 80.85766602 C-8.22654147 77.98443644 -8.21097544 75.11146558 -8.1953125 72.23828125 C-8.19158273 70.24716839 -8.18873559 68.2560537 -8.18673706 66.26493835 C-8.17909775 61.02223653 -8.15944666 55.77964538 -8.1373291 50.5369873 C-8.11687712 45.18808489 -8.10773673 39.83916461 -8.09765625 34.49023438 C-8.07620108 23.99344094 -8.0420615 13.49672967 -8 3 C-2.25 0 -2.25 0 0 0 Z " fill="#083547" transform="translate(46,67)"/>
<path d="M0 0 C1.6874269 0.00015917 3.37485866 0.00585622 5.06225586 0.01586914 C6.39189613 0.01799156 6.39189613 0.01799156 7.74839783 0.02015686 C10.59133215 0.02577324 13.43418892 0.03832848 16.27709961 0.05102539 C18.19962452 0.05603828 20.12215065 0.06060155 22.04467773 0.06469727 C26.7680151 0.07574798 31.49129419 0.09302356 36.21459961 0.11352539 C36.21459961 4.40352539 36.21459961 8.69352539 36.21459961 13.11352539 C34.56459961 13.11352539 32.91459961 13.11352539 31.21459961 13.11352539 C30.71959961 11.13352539 30.71959961 11.13352539 30.21459961 9.11352539 C27.24459961 9.11352539 24.27459961 9.11352539 21.21459961 9.11352539 C21.21459961 20.00352539 21.21459961 30.89352539 21.21459961 42.11352539 C22.86459961 42.77352539 24.51459961 43.43352539 26.21459961 44.11352539 C26.21459961 45.76352539 26.21459961 47.41352539 26.21459961 49.11352539 C19.61459961 49.11352539 13.01459961 49.11352539 6.21459961 49.11352539 C6.21459961 47.13352539 6.21459961 45.15352539 6.21459961 43.11352539 C8.68959961 42.61852539 8.68959961 42.61852539 11.21459961 42.11352539 C11.21459961 31.22352539 11.21459961 20.33352539 11.21459961 9.11352539 C8.24459961 9.11352539 5.27459961 9.11352539 2.21459961 9.11352539 C1.88459961 10.43352539 1.55459961 11.75352539 1.21459961 13.11352539 C-0.76540039 13.11352539 -2.74540039 13.11352539 -4.78540039 13.11352539 C-4.81226592 11.13443141 -4.83173415 9.15523568 -4.84790039 7.17602539 C-4.85950195 6.07387695 -4.87110352 4.97172852 -4.88305664 3.83618164 C-4.73157847 -0.38702986 -4.40740194 0.13217942 0 0 Z " fill="#284D5C" transform="translate(229.785400390625,90.886474609375)"/>
<path d="M0 0 C2.99452434 2.24589325 3.81623122 3.44869367 5 7 C5.556875 6.05125 6.11375 5.1025 6.6875 4.125 C9.13001067 0.8243099 10.09278826 -0.06971149 14 -1 C17.97592546 -1.50756495 19.68295973 -1.17071399 23.25 0.75 C25.91574041 2.93106034 26.80159686 3.89323926 28 7 C28.32592984 11.67166102 27.59286595 15.13764953 24.9375 19 C21.25683403 21.50598534 18.43383794 22.2955892 14 22 C10.12041277 20.68240434 8.47228948 19.67694825 6.125 16.3125 C5.75375 15.549375 5.3825 14.78625 5 14 C4.62875 14.763125 4.2575 15.52625 3.875 16.3125 C1.54519837 19.65188234 -0.16289777 20.67177231 -4 22 C-9.3122988 21.90680178 -12.19765092 20.69051529 -16 17 C-17.74348951 13.51302098 -17.58082725 9.80409937 -17 6 C-13.10136572 -1.28547874 -7.3827434 -1.74889581 0 0 Z M12.875 4.125 C10.30110637 6.69889363 10.07214058 8.39297125 10 12 C10.81207646 14.96493065 10.81207646 14.96493065 13 17 C16.5 17.75 16.5 17.75 20 17 C22.18547684 15.55851025 22.18547684 15.55851025 23 13 C22.93216262 9.13326949 22.8624765 6.89122572 20.125 4.0625 C17.25756982 2.62878491 15.71076876 2.62371066 12.875 4.125 Z M-11 5 C-12.52491998 8.04983996 -12.23562548 10.6423369 -12 14 C-11.01951062 16.06402685 -11.01951062 16.06402685 -9 17 C-5.88188517 17.38976435 -3.88980433 17.50422245 -1.125 15.9375 C0.62409203 12.92517484 0.30401551 10.40497373 0 7 C-1.66348833 3.8464189 -1.66348833 3.8464189 -4.375 3.1875 C-7.32703618 2.97664027 -8.57434783 3.35402174 -11 5 Z " fill="#3E606D" transform="translate(399,116)"/>
<path d="M0 0 C4 2 4 2 5.23046875 5.1953125 C5.56817896 6.50051231 5.88628239 7.81089852 6.1875 9.125 C6.35475586 9.81150635 6.52201172 10.4980127 6.69433594 11.20532227 C7.78909679 15.80670485 8.79383384 20.27467153 9 25 C9.06316406 26.09957031 9.12632812 27.19914062 9.19140625 28.33203125 C9.62355961 42.31428348 7.20096673 56.00503443 2 69 C1.34 69 0.68 69 0 69 C0 46.23 0 23.46 0 0 Z " fill="#1C4453" transform="translate(196,77)"/>
<path d="M0 0 C0 21.45 0 42.9 0 65 C-0.66 65 -1.32 65 -2 65 C-7.96178928 47.0567507 -10.25359164 29.61762183 -6.1875 11 C-6.02233887 10.24058105 -5.85717773 9.48116211 -5.68701172 8.69873047 C-3.57346875 0 -3.57346875 0 0 0 Z " fill="#1E4555" transform="translate(31,79)"/>
<path d="M0 0 C2.97 0 5.94 0 9 0 C9 1.32 9 2.64 9 4 C8.34 4 7.68 4 7 4 C7 5.65 7 7.3 7 9 C10.2542015 6.16569547 11.5206753 4.31392226 12 0 C14.97 0 17.94 0 21 0 C19.85751411 4.56994355 18.33668918 5.83014528 15 9 C14.67 9.66 14.34 10.32 14 11 C14.78633922 12.14949588 15.57926258 13.29448989 16.375 14.4375 C16.81585938 15.07558594 17.25671875 15.71367187 17.7109375 16.37109375 C18.92160853 18.13740928 18.92160853 18.13740928 21 19 C21 19.99 21 20.98 21 22 C18.03 22 15.06 22 12 22 C11.87625 20.88625 11.87625 20.88625 11.75 19.75 C10.8603054 16.48778646 9.51496251 15.19045122 7 13 C7 14.98 7 16.96 7 19 C7.66 19 8.32 19 9 19 C9 19.99 9 20.98 9 22 C6.03 22 3.06 22 0 22 C0 21.01 0 20.02 0 19 C0.66 19 1.32 19 2 19 C2 14.05 2 9.1 2 4 C1.34 4 0.68 4 0 4 C0 2.68 0 1.36 0 0 Z " fill="#40616E" transform="translate(306,115)"/>
<path d="M0 0 C2.97 0 5.94 0 9 0 C8.67 1.32 8.34 2.64 8 4 C7.34 4 6.68 4 6 4 C6 5.65 6 7.3 6 9 C8.58333229 6.75041666 8.58333229 6.75041666 11 4 C11 2.68 11 1.36 11 0 C13.97 0 16.94 0 20 0 C20 1.32 20 2.64 20 4 C19.01 4.33 18.02 4.66 17 5 C15.60287726 6.95597184 14.26220093 8.95436401 13 11 C13.76116551 12.15227823 14.53432693 13.2966386 15.3125 14.4375 C15.74175781 15.07558594 16.17101562 15.71367187 16.61328125 16.37109375 C18.0034052 18.2885684 18.0034052 18.2885684 21 19 C21 19.99 21 20.98 21 22 C18.03 22 15.06 22 12 22 C11.566875 20.88625 11.13375 19.7725 10.6875 18.625 C9.30088881 14.82487666 9.30088881 14.82487666 6 13 C6 14.98 6 16.96 6 19 C6.99 19.33 7.98 19.66 9 20 C9 20.66 9 21.32 9 22 C5.7 22 2.4 22 -1 22 C-0.505 20.515 -0.505 20.515 0 19 C0.66 19 1.32 19 2 19 C2 14.05 2 9.1 2 4 C1.01 3.67 0.02 3.34 -1 3 C-0.67 2.01 -0.34 1.02 0 0 Z " fill="#385B68" transform="translate(428,115)"/>
<path d="M0 0 C1.65 0 3.3 0 5 0 C6.17094005 2.7899439 7.33690927 5.58178597 8.5 8.375 C8.83386719 9.1690625 9.16773438 9.963125 9.51171875 10.78125 C9.82753906 11.54179688 10.14335937 12.30234375 10.46875 13.0859375 C10.76201172 13.7876709 11.05527344 14.4894043 11.35742188 15.21240234 C12 17 12 17 12 19 C12.66 19 13.32 19 14 19 C14 19.99 14 20.98 14 22 C11.36 22 8.72 22 6 22 C6.33 20.35 6.66 18.7 7 17 C4.03 17 1.06 17 -2 17 C-1.67 18.65 -1.34 20.3 -1 22 C-3.64 22 -6.28 22 -9 22 C-9 21.01 -9 20.02 -9 19 C-8.34 19 -7.68 19 -7 19 C-6.74476563 18.07380859 -6.74476563 18.07380859 -6.484375 17.12890625 C-4.77814576 11.1661796 -2.66418883 5.59885369 0 0 Z M2 6 C1.34 8.31 0.68 10.62 0 13 C1.65 13 3.3 13 5 13 C4.34 10.69 3.68 8.38 3 6 C2.67 6 2.34 6 2 6 Z " fill="#3B5D6B" transform="translate(276,115)"/>
<path d="M0 0 C0.88751953 0.19529297 0.88751953 0.19529297 1.79296875 0.39453125 C1.79296875 2.70453125 1.79296875 5.01453125 1.79296875 7.39453125 C0.80296875 7.39453125 -0.18703125 7.39453125 -1.20703125 7.39453125 C-1.53703125 6.40453125 -1.86703125 5.41453125 -2.20703125 4.39453125 C-3.52703125 4.39453125 -4.84703125 4.39453125 -6.20703125 4.39453125 C-6.53703125 5.38453125 -6.86703125 6.37453125 -7.20703125 7.39453125 C-6.11390625 7.64203125 -5.02078125 7.88953125 -3.89453125 8.14453125 C-0.20703125 9.39453125 -0.20703125 9.39453125 1.79296875 11.20703125 C3.10856424 14.08489638 2.85323096 15.44094367 1.79296875 18.39453125 C-0.03894325 21.24417213 -1.26602259 21.40740209 -4.64453125 22.14453125 C-7.60654172 22.35239163 -9.46500584 22.3816604 -12.20703125 21.39453125 C-12.20703125 19.08453125 -12.20703125 16.77453125 -12.20703125 14.39453125 C-11.21703125 14.39453125 -10.22703125 14.39453125 -9.20703125 14.39453125 C-9.20703125 15.38453125 -9.20703125 16.37453125 -9.20703125 17.39453125 C-7.22703125 17.06453125 -5.24703125 16.73453125 -3.20703125 16.39453125 C-3.20703125 15.73453125 -3.20703125 15.07453125 -3.20703125 14.39453125 C-3.77292969 14.17539063 -4.33882813 13.95625 -4.921875 13.73046875 C-10.86444424 11.16127361 -10.86444424 11.16127361 -12.51953125 7.45703125 C-12.20703125 4.39453125 -12.20703125 4.39453125 -10.33203125 1.45703125 C-6.41781691 -1.12635021 -4.47024477 -0.78028742 0 0 Z " fill="#446471" transform="translate(303.20703125,115.60546875)"/>
<path d="M0 0 C0.66 0 1.32 0 2 0 C2 22.77 2 45.54 2 69 C1.67 69 1.34 69 1 69 C0.505 37.32 0.505 37.32 0 5 C-0.99 5.495 -0.99 5.495 -2 6 C-1.34 4.02 -0.68 2.04 0 0 Z " fill="#117893" transform="translate(30,75)"/>
<path d="M0 0 C3.12166319 1.34071432 4.8101975 2.65352418 6.75 5.4375 C7.39195312 6.33275391 7.39195312 6.33275391 8.046875 7.24609375 C9 9 9 9 9 12 C1.125 11.125 1.125 11.125 0 10 C-0.07205511 8.31391034 -0.08386068 6.62499341 -0.0625 4.9375 C-0.05347656 4.01839844 -0.04445312 3.09929688 -0.03515625 2.15234375 C-0.02355469 1.44207031 -0.01195312 0.73179688 0 0 Z " fill="#224A5A" transform="translate(181,50)"/>
<path d="M0 0 C0.99 0 1.98 0 3 0 C3 2.64 3 5.28 3 8 C0.36 8.66 -2.28 9.32 -5 10 C-3.95456857 5.81827428 -2.61736985 3.38718451 0 0 Z " fill="#1E4B5B" transform="translate(43,52)"/>
</svg>
